<?xml version="1.0" encoding="utf-8"?>
<!-- Generator: Adobe Illustrator 19.1.0, SVG Export Plug-In . SVG Version: 6.00 Build 0)  -->
<svg version="1.1" xmlns="http://www.w3.org/2000/svg" xmlns:xlink="http://www.w3.org/1999/xlink" x="0px" y="0px"
	 viewBox="0 0 130 109" style="enable-background:new 0 0 130 109;" xml:space="preserve">
<style type="text/css">
	.st0{fill-rule:evenodd;clip-rule:evenodd;fill:#184891;}
	.st1{fill-rule:evenodd;clip-rule:evenodd;fill:#FDB913;}
</style>
<g id="Exclusion_Zone">
</g>
<g id="Layer_1">
	<g>
		<path class="st0" d="M26,83.4l-0.2-0.6c-0.2,0.1-0.3,0.2-0.6,0.2c-0.8,0-1.1-0.8-1.1-1.7c0-0.9,0.3-1.8,1.1-1.8
			c0.3,0,0.5,0.1,0.6,0.2l0.2-0.5c-0.2-0.2-0.5-0.3-1-0.3c-1.2,0-1.8,1.1-1.8,2.4c0,1.3,0.6,2.4,1.8,2.4
			C25.4,83.7,25.7,83.6,26,83.4z"/>
		<rect x="28.8" y="79" class="st0" width="0.9" height="4.6"/>
		<polygon class="st0" points="35,79.5 35,79 32.4,79 32.4,79.5 33.3,79.5 33.3,83.6 34.2,83.6 34.2,79.5 		"/>
		<polygon class="st0" points="40.8,79 40,79 39.1,80.9 39.1,80.9 38.3,79 37.4,79 38.7,81.6 38.7,83.6 39.5,83.6 39.5,81.6 		"/>
		<path class="st0" d="M49,81.3c0-1.3-0.5-2.4-1.7-2.4c-1.2,0-1.7,1.1-1.7,2.4c0,1.3,0.5,2.4,1.7,2.4C48.5,83.7,49,82.6,49,81.3z
			 M48.1,81.2c0,0.9-0.1,1.8-0.9,1.8c-0.7,0-0.9-0.9-0.9-1.8c0-0.9,0.2-1.8,0.9-1.8C48,79.5,48.1,80.4,48.1,81.2z"/>
		<polygon class="st0" points="54.2,79.5 54.2,79 51.9,79 51.9,83.6 52.8,83.6 52.8,81.5 54,81.5 54,80.9 52.8,80.9 52.8,79.5 		"/>
	</g>
	<g>
		<path class="st0" d="M31.6,100.1c0-1.4-0.4-3-3.3-4.3C27,95.3,26,94.7,26,93.4c0-1.3,0.8-2.1,2.1-2.1c0.9,0,1.8,0.3,2.3,0.7
			l0.6-1.7c-0.7-0.5-1.8-0.8-3.2-0.8c-2.7,0-4.4,2-4.4,4.3c0,1.4,0.6,3,3,4c1.6,0.7,2.3,1.4,2.3,2.5c0,1.4-0.9,2.3-2.4,2.3
			c-1.1,0-2-0.3-2.5-0.7l-0.7,1.9c0.8,0.5,1.9,0.8,3.6,0.8C29.6,104.6,31.6,102.7,31.6,100.1z"/>
		<path class="st0" d="M42.7,103.8v-7.2c0-3-1.9-4-4.3-4c-1.8,0-3.2,0.5-4,0.9L35,95c0.7-0.3,1.8-0.7,2.9-0.7c1.3,0,2.3,0.4,2.3,1.9
			v0.6c-3.5,0.3-6.5,1.2-6.5,4.3c0,2.2,1.6,3.5,4.7,3.5C40.3,104.6,41.7,104.3,42.7,103.8z M40.2,102.8c-0.4,0.2-1,0.3-1.6,0.3
			c-1.5,0-2.4-0.6-2.4-2.1c0-2.1,1.5-2.6,4-2.9V102.8z"/>
		<rect x="45.8" y="87.6" class="st0" width="2.6" height="16.8"/>
		<path class="st0" d="M54.3,89.6c0-0.7-0.6-1.3-1.4-1.3c-0.8,0-1.4,0.6-1.4,1.3c0,0.7,0.6,1.3,1.4,1.3
			C53.7,90.9,54.3,90.3,54.3,89.6z M54.2,104.4V92.9h-2.6v11.6H54.2z"/>
		<path class="st0" d="M63.9,101.1c0-1.4-0.5-2.5-2.8-3.4c-1-0.4-1.7-0.9-1.7-1.8c0-0.8,0.6-1.5,1.6-1.5c0.8,0,1.5,0.4,1.8,0.6
			l0.6-1.5c-0.8-0.5-1.7-0.8-3-0.8c-2.2,0-3.7,1.5-3.7,3.3c0,1.2,0.5,2.4,2.6,3.2c1.2,0.5,1.7,0.9,1.7,1.9c0,0.9-0.7,1.6-1.8,1.6
			c-0.9,0-1.7-0.3-2.2-0.7l-0.7,1.7c0.7,0.5,1.8,0.8,3.2,0.8C62.3,104.6,63.9,103,63.9,101.1z"/>
		<path class="st0" d="M75.8,98.4c0-3.5-1.9-5.7-4.5-5.7c-1.1,0-1.7,0.2-2.3,0.5v-5.6h-2.6v16.2c0.7,0.5,2,0.8,3.8,0.8
			C73.8,104.6,75.8,102.2,75.8,98.4z M73.2,98.5c0,2.7-0.8,4.5-2.9,4.5c-0.5,0-1-0.1-1.3-0.2v-8.2c0.4-0.2,0.9-0.3,1.6-0.3
			C72.5,94.2,73.2,96.1,73.2,98.5z"/>
		<path class="st0" d="M87.3,103.7V92.9h-2.6v9.6c-0.5,0.3-1,0.4-1.7,0.4c-1.4,0-2-0.9-2-2v-8h-2.6v7.9c0,2.6,1.4,3.9,4.5,3.9
			C84.8,104.6,86.3,104.2,87.3,103.7z"/>
		<path class="st0" d="M95.8,92.7c-2.9-0.1-4.4,0.2-5.6,0.8v10.9h2.6v-9.8c0.6-0.3,1.6-0.4,2.4-0.1L95.8,92.7z"/>
		<path class="st0" d="M106.8,92.9h-2.4l-2.1,7.5c-0.3,0.9-0.3,1.7-0.3,1.7h0c0,0,0-0.8-0.2-1.7l-2-7.5h-2.8l3.8,11.6l-1.9,4.6h2.8
			L106.8,92.9z"/>
	</g>
	<path class="st0" d="M55.7,68.5C23.3,54.5,9.3,60.4,0,65c18.5-18.5,41.8-17.4,74.3-3.5c32.5,13.9,46.4,8.1,55.7,3.5
		C111.6,83.4,88.3,82.5,55.7,68.5z"/>
	<path class="st1" d="M48.9,41.8c1.9-7.1,8.3-12.4,16.1-12.4c7.7,0,14.2,5.3,16.1,12.4h25.7L65,0L23.2,41.8H48.9z"/>
</g>
</svg>
